<svg width="70" height="94" viewBox="0 0 70 94" fill="none" xmlns="http://www.w3.org/2000/svg">
<path d="M37.4157 39.7092C31.2508 42.2898 24.2258 39.8526 20.9283 39.7092C17.7742 39.7092 15.6237 40.1871 15.0502 40.426C9.20077 42.3759 7.92957 48.2157 8.02515 50.8919C8.02515 54.6769 11.0837 61.549 12.6129 64.5119C14.2187 68.6409 13.5014 69.861 13.3298 70.5334C11.9534 75.9241 12.2784 81.5728 12.6129 83.7233C15.4803 96.9132 22.123 93.9025 25.086 90.7483C27.6093 87.1928 27.9534 82.8631 27.81 81.1427C28.4982 74.7198 30.8207 77.8452 30.8207 79.5656C30.706 84.1534 32.0154 87.9288 32.6845 89.1713C38.0751 97.3146 43.0548 91.9909 44.8708 88.3111C47.3941 84.2968 46.6868 76.4115 46.0178 72.9707C44.6414 68.6123 45.4443 66.089 46.0178 65.3721C50.9496 57.3435 50.8445 50.4618 50.1754 48.0246C47.5375 39.6518 40.8565 38.849 37.4157 39.7092Z" fill="white" stroke="black"/>
<path d="M13.1865 41.1426C10.6059 42.1939 5.588 46.1318 6.16147 53.4723C6.40041 55.1927 7.45175 59.9812 10.8926 66.5188C11.119 66.9489 11.5234 70.3037 10.6059 72.2535C9.45891 78.275 9.14349 90.8054 17.0574 92.7552" stroke="black"/>
<path d="M27.8101 83.1494C28.3835 86.7336 30.8495 93.7013 36.1254 92.8985" stroke="black"/>
<path d="M25.3726 60.2109C26.854 61.4535 30.5338 63.193 33.4012 60.2109" stroke="black"/>
<ellipse cx="19.2078" cy="51.6087" rx="4.44442" ry="5.01789" fill="#002829"/>
<ellipse cx="39.8529" cy="51.8958" rx="4.44442" ry="5.01789" fill="#002829"/>
<circle cx="41.5733" cy="50.7483" r="1.29031" fill="#5DEAEE"/>
<circle cx="38.4191" cy="53.3295" r="0.430105" fill="#5DEAEE"/>
<circle cx="20.4981" cy="50.6056" r="1.43368" fill="#5DEAEE"/>
<circle cx="17.2006" cy="53.3295" r="0.430105" fill="#5DEAEE"/>
<ellipse cx="15.0876" cy="59.5356" rx="1.94443" ry="2.63868" transform="rotate(-51.5398 15.0876 59.5356)" fill="#35C1C5"/>
<ellipse cx="43.8451" cy="59.2165" rx="1.94443" ry="2.63868" transform="rotate(51.54 43.8451 59.2165)" fill="#35C1C5"/>
<path d="M22.3583 6.22793C10.3032 14.4823 7.07111 27.4332 6.96191 32.8769V33.0819C20.6417 30.5673 42.0569 32.1708 51.0544 33.2185C50.5303 27.7521 47.2982 21.9668 45.7476 19.7574C44.4897 18.5548 44.481 17.2064 44.6338 16.6825C45.1055 14.9333 46.1844 15.4526 46.6648 15.9309L55.444 28.2987C57.3833 26.4401 59.7463 25.7022 60.6853 25.5655C60.6853 23.8709 57.1911 17.2064 55.444 14.086C52.142 6.37826 46.1189 2.90251 43.5201 2.12809C34.6622 -1.15178 25.7214 3.49471 22.3583 6.22793Z" fill="url(#paint0_linear_244_75)" stroke="black"/>
<path d="M55.5096 40.8715C56.6627 35.6784 53.02 33.5146 51.0545 33.0818C45.6279 32.1148 29.6061 31.7526 22.2736 31.6924C15.6479 31.6924 9.30516 32.6187 6.96199 33.0818C2.92618 33.0818 1.2839 36.6806 1 38.48C1.05241 40.2292 1.72068 44.2197 2.04826 45.9963C3.46342 50.6975 6.65625 51.0073 8.07577 50.5745C15.3088 49.5359 25.5468 49.3673 29.7617 49.4129C31.5961 48.9756 43.0178 50.0051 48.4994 50.5745C52.5614 51.4628 54.1993 47.4313 54.5269 46.8163C54.7889 46.3243 55.2912 42.6481 55.5096 40.8715Z" fill="url(#paint1_linear_244_75)" stroke="black"/>
<path d="M69.0301 33.5258C69.0301 37.9114 65.6264 41.4304 61.4716 41.4304C57.3168 41.4304 53.9131 37.9114 53.9131 33.5258C53.9131 29.1401 57.3168 25.6211 61.4716 25.6211C65.6264 25.6211 69.0301 29.1401 69.0301 33.5258Z" fill="url(#paint2_linear_244_75)" stroke="black"/>
<defs>
<linearGradient id="paint0_linear_244_75" x1="33.6879" y1="18.4909" x2="33.8236" y2="33.2185" gradientUnits="userSpaceOnUse">
<stop stop-color="#FF4D4D"/>
<stop offset="1" stop-color="#AD2F2F"/>
</linearGradient>
<linearGradient id="paint1_linear_244_75" x1="31.9676" y1="45.8743" x2="32.2543" y2="30.8206" gradientUnits="userSpaceOnUse">
<stop stop-color="#CBFFFC"/>
<stop offset="1" stop-color="#EFF9F8"/>
</linearGradient>
<linearGradient id="paint2_linear_244_75" x1="57.2003" y1="38.5627" x2="76.6984" y2="28.2402" gradientUnits="userSpaceOnUse">
<stop stop-color="#CBFFFC"/>
<stop offset="1" stop-color="white"/>
</linearGradient>
</defs>
</svg>
